<svg width="191" height="191" viewBox="0 0 191 191" fill="none" xmlns="http://www.w3.org/2000/svg">
<g clip-path="url(#clip0_47_386)">
<path fill-rule="evenodd" clip-rule="evenodd" d="M24.4808 44.7018C25.0836 43.2479 26.1039 42.0054 27.4128 41.1314C28.7217 40.2574 30.2604 39.7911 31.8343 39.7915H111.418C118.733 39.7915 125.977 41.2324 132.736 44.032C139.495 46.8317 145.636 50.9351 150.809 56.1081C155.982 61.2811 160.086 67.4223 162.885 74.1812C165.685 80.94 167.126 88.1841 167.126 95.4998C167.126 102.816 165.685 110.06 162.885 116.818C160.086 123.577 155.982 129.719 150.809 134.892C145.636 140.065 139.495 144.168 132.736 146.968C125.977 149.767 118.733 151.208 111.418 151.208H39.7926C37.6819 151.208 35.6577 150.37 34.1652 148.877C32.6727 147.385 31.8343 145.361 31.8343 143.25C31.8343 141.139 32.6727 139.115 34.1652 137.622C35.6577 136.13 37.6819 135.292 39.7926 135.292H111.418C121.971 135.292 132.092 131.099 139.555 123.637C147.017 116.174 151.209 106.053 151.209 95.4998C151.209 84.9464 147.017 74.8253 139.555 67.3629C132.092 59.9005 121.971 55.7082 111.418 55.7082H51.0457L65.315 69.9775C66.7646 71.4784 67.5668 73.4887 67.5487 75.5754C67.5305 77.662 66.6936 79.6581 65.218 81.1336C63.7425 82.6091 61.7464 83.4461 59.6598 83.4642C57.5731 83.4824 55.5628 82.6802 54.0619 81.2305L26.2077 53.3764C25.0941 52.2634 24.3356 50.8452 24.0282 49.3011C23.7208 47.757 23.8783 46.1564 24.4808 44.7018Z" fill="#CFCFCF"/>
</g>
<defs>
<clipPath id="clip0_47_386">
<rect width="191" height="191" fill="white"/>
</clipPath>
</defs>
</svg>
