<svg width="425" height="172" viewBox="0 0 425 172" fill="none" xmlns="http://www.w3.org/2000/svg">
<path d="M42.5326 90.334C40.7213 89.2889 38.5964 88.4529 36.158 87.8259C33.7892 87.1292 31.4205 86.7809 29.0518 86.7809C24.6627 86.7809 21.1444 88.1394 18.497 90.8565C15.9193 93.5736 14.6304 97.684 14.6304 103.188C14.6304 108.692 15.9193 112.802 18.497 115.519C21.1444 118.236 24.6627 119.595 29.0518 119.595C31.4205 119.595 33.7892 119.281 36.158 118.654C38.5964 117.958 40.7213 117.087 42.5326 116.042L43.1597 127.223C41.3483 128.268 39.1537 129.07 36.576 129.627C33.9982 130.254 31.316 130.568 28.5293 130.568C23.8615 130.568 19.6117 129.627 15.7799 127.746C12.0178 125.865 8.98724 122.869 6.68818 118.759C4.38912 114.648 3.23959 109.458 3.23959 103.188C3.23959 96.9176 4.38912 91.7273 6.68818 87.6169C8.98724 83.5065 12.0178 80.5107 15.7799 78.6297C19.6117 76.7486 23.8615 75.8081 28.5293 75.8081C31.2463 75.8081 33.8937 76.1216 36.4715 76.7486C39.0492 77.306 41.2786 78.142 43.1597 79.2567L42.5326 90.334ZM83.8684 99.6347C83.8684 95.5939 82.9975 92.4589 81.2558 90.2295C79.5141 88.0001 77.006 86.8854 73.7316 86.8854C71.0842 86.8854 68.7851 87.8259 66.8344 89.707C64.8837 91.588 63.3858 93.9916 62.3408 96.9176C61.3655 99.8437 60.8778 102.909 60.8778 106.114V129H49.487V51.2499H60.8778V83.8548L60.2508 97.7537H60.8778C61.1564 91.6925 62.6543 86.537 65.3714 82.2873C68.1581 77.9678 72.4427 75.8081 78.2252 75.8081C83.52 75.8081 87.6653 77.8285 90.6611 81.8692C93.7265 85.8403 95.2592 91.3442 95.2592 98.3807V129H83.8684V99.6347ZM126.164 130.568C118.501 130.568 112.544 128.199 108.294 123.461C104.044 118.654 101.92 111.896 101.92 103.188C101.92 94.4792 104.044 87.7562 108.294 83.0188C112.544 78.2116 118.501 75.8081 126.164 75.8081C133.828 75.8081 139.784 78.2116 144.034 83.0188C148.284 87.8259 150.409 94.5837 150.409 103.292C150.409 111.931 148.284 118.654 144.034 123.461C139.784 128.199 133.828 130.568 126.164 130.568ZM113.415 103.188C113.415 108.692 114.53 112.907 116.759 115.833C118.988 118.689 122.123 120.117 126.164 120.117C130.275 120.117 133.41 118.689 135.57 115.833C137.799 112.907 138.914 108.692 138.914 103.188C138.914 97.684 137.799 93.5039 135.57 90.6475C133.41 87.7214 130.275 86.2584 126.164 86.2584C122.123 86.2584 118.988 87.7214 116.759 90.6475C114.53 93.5039 113.415 97.684 113.415 103.188ZM163.238 77.3756L166.896 98.5897H167.418C167.627 92.2499 168.707 86.8854 170.658 82.4963C172.678 78.0375 175.813 75.8081 180.063 75.8081C181.875 75.8081 183.86 76.2261 186.02 77.0621L185.497 90.4385C182.92 89.3934 180.516 88.8709 178.287 88.8709C170.971 88.8709 167.314 96.012 167.314 110.294V129H155.923V77.3756H163.238ZM250.074 87.9304H242.863V77.3756H254.358C251.432 74.1709 249.969 70.3043 249.969 65.7758C249.969 61.0384 251.571 57.2763 254.776 54.4895C257.981 51.6331 262.057 50.2049 267.003 50.2049C270.626 50.2049 273.761 50.6577 276.408 51.5634L275.886 62.1182C273.796 61.4215 271.636 61.0732 269.407 61.0732C266.341 61.0732 264.251 62.0485 263.136 63.9993C262.022 65.95 261.464 68.7367 261.464 72.3595V77.3756H275.363V87.9304H261.464V129H250.074V87.9304ZM300.557 130.568C292.893 130.568 286.936 128.199 282.687 123.461C278.437 118.654 276.312 111.896 276.312 103.188C276.312 94.4792 278.437 87.7562 282.687 83.0188C286.936 78.2116 292.893 75.8081 300.557 75.8081C308.22 75.8081 314.177 78.2116 318.427 83.0188C322.676 87.8259 324.801 94.5837 324.801 103.292C324.801 111.931 322.676 118.654 318.427 123.461C314.177 128.199 308.22 130.568 300.557 130.568ZM287.807 103.188C287.807 108.692 288.922 112.907 291.151 115.833C293.381 118.689 296.516 120.117 300.557 120.117C304.667 120.117 307.802 118.689 309.962 115.833C312.191 112.907 313.306 108.692 313.306 103.188C313.306 97.684 312.191 93.5039 309.962 90.6475C307.802 87.7214 304.667 86.2584 300.557 86.2584C296.516 86.2584 293.381 87.7214 291.151 90.6475C288.922 93.5039 287.807 97.684 287.807 103.188ZM342.012 51.2499V129H330.621V51.2499H342.012ZM365.161 129H353.875V87.9304H349.277V77.3756H365.161V129ZM358.055 68.9109C355.965 68.9109 354.328 68.3187 353.143 67.1344C351.959 65.95 351.367 64.3128 351.367 62.2227C351.367 60.1327 351.959 58.4955 353.143 57.3111C354.328 56.1267 355.965 55.5345 358.055 55.5345C360.076 55.5345 361.643 56.1267 362.758 57.3111C363.942 58.4955 364.534 60.1327 364.534 62.2227C364.534 64.3128 363.942 65.95 362.758 67.1344C361.643 68.3187 360.076 68.9109 358.055 68.9109ZM396.733 130.568C389.07 130.568 383.113 128.199 378.863 123.461C374.614 118.654 372.489 111.896 372.489 103.188C372.489 94.4792 374.614 87.7562 378.863 83.0188C383.113 78.2116 389.07 75.8081 396.733 75.8081C404.397 75.8081 410.354 78.2116 414.603 83.0188C418.853 87.8259 420.978 94.5837 420.978 103.292C420.978 111.931 418.853 118.654 414.603 123.461C410.354 128.199 404.397 130.568 396.733 130.568ZM383.984 103.188C383.984 108.692 385.099 112.907 387.328 115.833C389.558 118.689 392.693 120.117 396.733 120.117C400.844 120.117 403.979 118.689 406.139 115.833C408.368 112.907 409.483 108.692 409.483 103.188C409.483 97.684 408.368 93.5039 406.139 90.6475C403.979 87.7214 400.844 86.2584 396.733 86.2584C392.693 86.2584 389.558 87.7214 387.328 90.6475C385.099 93.5039 383.984 97.684 383.984 103.188Z" fill="white"/>
<path d="M224 84.5938V18.75H274V31.25H236.5V106.25C236.499 111.753 234.682 117.102 231.331 121.467C227.98 125.833 223.282 128.97 217.966 130.394C212.651 131.817 207.014 131.447 201.93 129.34C196.846 127.233 192.599 123.508 189.848 118.742C187.097 113.976 185.995 108.435 186.714 102.979C187.433 97.5232 189.932 92.4568 193.823 88.5657C197.715 84.6747 202.782 82.1763 208.238 81.4582C213.694 80.74 219.234 81.8422 224 84.5938ZM211.5 118.75C214.815 118.75 217.995 117.433 220.339 115.089C222.683 112.745 224 109.565 224 106.25C224 102.935 222.683 99.7554 220.339 97.4112C217.995 95.067 214.815 93.75 211.5 93.75C208.185 93.75 205.005 95.067 202.661 97.4112C200.317 99.7554 199 102.935 199 106.25C199 109.565 200.317 112.745 202.661 115.089C205.005 117.433 208.185 118.75 211.5 118.75Z" fill="white"/>
</svg>
